HIERARCHY
ROOT Hips
{
	OFFSET 0.000000 0.000000 0.000000
	CHANNELS 6 Xposition Yposition Zposition Zrotation Yrotation Xrotation
	JOINT LHip
	{
		OFFSET 14.658600 0.000000 0.000000
		CHANNELS 6 Xposition Yposition Zposition Zrotation Yrotation Xrotation
		JOINT LKnee
		{
			OFFSET 0.000000 -35.094978 0.000000
			CHANNELS 6 Xposition Yposition Zposition Zrotation Yrotation Xrotation
			JOINT LAnkle
			{
				OFFSET 0.000000 -29.899353 0.000000
				CHANNELS 6 Xposition Yposition Zposition Zrotation Yrotation Xrotation
				JOINT LHeel
				{
					OFFSET 2.611496 -21.660095 -3.488250
					CHANNELS 6 Xposition Yposition Zposition Zrotation Yrotation Xrotation
					End Site
					{
						OFFSET -2.611496 21.660095 3.488250
					}
				}
				JOINT LBigToe
				{
					OFFSET -1.591700 -23.267303 17.962543
					CHANNELS 6 Xposition Yposition Zposition Zrotation Yrotation Xrotation
					End Site
					{
						OFFSET 0.000027 0.000000 3.226902
					}
				}
				JOINT LSmallToe
				{
					OFFSET 4.659401 -23.267303 16.779675
					CHANNELS 6 Xposition Yposition Zposition Zrotation Yrotation Xrotation
					End Site
					{
						OFFSET 0.000000 0.000000 3.226919
					}
				}
			}
		}
	}
	JOINT RHip
	{
		OFFSET -14.658600 0.000000 0.000000
		CHANNELS 6 Xposition Yposition Zposition Zrotation Yrotation Xrotation
		JOINT RKnee
		{
			OFFSET 0.000000 -35.094986 0.000000
			CHANNELS 6 Xposition Yposition Zposition Zrotation Yrotation Xrotation
			JOINT RAnkle
			{
				OFFSET 0.000000 -29.899361 0.000000
				CHANNELS 6 Xposition Yposition Zposition Zrotation Yrotation Xrotation
				JOINT RHeel
				{
					OFFSET -2.802538 -21.660080 -3.488250
					CHANNELS 6 Xposition Yposition Zposition Zrotation Yrotation Xrotation
					End Site
					{
						OFFSET 2.802538 21.660080 3.488250
					}
				}
				JOINT RBigToe
				{
					OFFSET 1.591700 -23.267265 17.962543
					CHANNELS 6 Xposition Yposition Zposition Zrotation Yrotation Xrotation
					End Site
					{
						OFFSET 0.000000 -0.000015 3.226902
					}
				}
				JOINT RSmallToe
				{
					OFFSET -4.659401 -23.267288 16.779675
					CHANNELS 6 Xposition Yposition Zposition Zrotation Yrotation Xrotation
					End Site
					{
						OFFSET 0.000040 0.000000 3.226919
					}
				}
			}
		}
	}
	JOINT Spine
	{
		OFFSET 0.000000 12.042199 0.000000
		CHANNELS 6 Xposition Yposition Zposition Zrotation Yrotation Xrotation
		JOINT Spine1
		{
			OFFSET 0.000000 12.939664 0.000000
			CHANNELS 6 Xposition Yposition Zposition Zrotation Yrotation Xrotation
			JOINT Spine2
			{
				OFFSET 0.000000 24.462397 0.000000
				CHANNELS 6 Xposition Yposition Zposition Zrotation Yrotation Xrotation
				JOINT Neck
				{
					OFFSET 0.000000 24.386711 0.000000
					CHANNELS 6 Xposition Yposition Zposition Zrotation Yrotation Xrotation
					JOINT Nose
					{
						OFFSET 0.000000 16.472343 4.302957
						CHANNELS 6 Xposition Yposition Zposition Zrotation Yrotation Xrotation
						End Site
						{
							OFFSET 0.000000 2.575722 0.000000
						}
					}
					JOINT LEye
					{
						OFFSET 2.175930 17.434258 4.302957
						CHANNELS 6 Xposition Yposition Zposition Zrotation Yrotation Xrotation
						End Site
						{
							OFFSET 2.714973 -1.318481 0.000000
						}
					}
					JOINT LEar
					{
						OFFSET 4.890903 16.115776 4.302957
						CHANNELS 6 Xposition Yposition Zposition Zrotation Yrotation Xrotation
						End Site
						{
							OFFSET 0.491802 0.049316 0.000000
						}
					}
					JOINT REye
					{
						OFFSET -2.175930 17.434242 4.302957
						CHANNELS 6 Xposition Yposition Zposition Zrotation Yrotation Xrotation
						End Site
						{
							OFFSET -2.714970 -1.318008 0.000000
						}
					}
					JOINT REar
					{
						OFFSET -4.890900 16.116234 4.302957
						CHANNELS 6 Xposition Yposition Zposition Zrotation Yrotation Xrotation
						End Site
						{
							OFFSET -0.480842 -0.005859 0.000000
						}
					}
				}
				JOINT LShoulder
				{
					OFFSET 12.193900 24.386742 0.000000
					CHANNELS 6 Xposition Yposition Zposition Zrotation Yrotation Xrotation
					JOINT LElbow
					{
						OFFSET 19.027000 0.000000 0.000000
						CHANNELS 6 Xposition Yposition Zposition Zrotation Yrotation Xrotation
						JOINT LWrist
						{
							OFFSET 24.179899 0.000000 0.000000
							CHANNELS 6 Xposition Yposition Zposition Zrotation Yrotation Xrotation
							End Site
							{
								OFFSET 4.330502 0.000000 0.000000
							}
						}
					}
				}
				JOINT RShoulder
				{
					OFFSET -12.193899 24.386742 0.000000
					CHANNELS 6 Xposition Yposition Zposition Zrotation Yrotation Xrotation
					JOINT RElbow
					{
						OFFSET -19.027000 0.000000 0.000000
						CHANNELS 6 Xposition Yposition Zposition Zrotation Yrotation Xrotation
						JOINT RWrist
						{
							OFFSET -24.179895 0.000000 0.000000
							CHANNELS 6 Xposition Yposition Zposition Zrotation Yrotation Xrotation
							End Site
							{
								OFFSET -4.330555 0.000000 0.000000
							}
						}
					}
				}
			}
		}
	}
}
MOTION
Frames: 4
Frame Time: 0.041667
0.784184 4.320221 -1.229169 3.048195 -2.539956 0.094350 14.658600 -0.000005 0.000002 -5.436474 7.403778 25.761708 0.000002 -35.094986 0.000009 0.442620 -1.284155 -61.242563 -0.000001 -29.899355 0.000006 -1.020751 0.678889 1.892827 2.611495 -21.660095 -3.488250 0.000001 -0.000000 0.000006 -1.591704 -23.267309 17.962540 -1.840343 0.254926 -37.982699 4.659395 -23.267302 16.779675 -0.000002 -0.000000 -0.000000 -14.658601 -0.000008 -0.000003 -5.926358 -8.661793 14.670777 -0.000003 -35.094994 -0.000002 -1.339057 7.266349 -25.276085 0.000001 -29.899355 -0.000000 -4.077675 1.023715 -12.220090 -2.802539 -21.660095 -3.488247 -0.000001 -0.000000 -0.000001 1.591697 -23.267262 17.962540 -0.615194 -0.638660 -4.894133 -4.659400 -23.267294 16.779682 0.000000 -0.000002 -0.000007 -0.000000 12.042213 0.000001 0.000000 -0.000000 -0.000001 -0.000002 12.939668 0.000000 0.000001 0.000000 -0.000000 -0.000001 24.462397 -0.000002 -0.000000 0.000000 -0.000000 -1.098100 27.621765 1.352739 -1.279396 -0.174722 0.002426 0.000000 16.472361 4.302958 1.881410 -3.231590 2.413725 2.175929 17.434258 4.302956 0.000002 -0.000000 0.000002 4.890906 16.115784 4.302956 0.000000 -0.000000 -0.000001 -2.175939 17.434250 4.302947 0.000002 -0.000001 -0.000002 -4.890893 16.116203 4.302964 -0.000000 0.000001 0.000004 12.193909 24.386744 0.000024 -8.085556 19.415559 6.355136 19.027018 -0.000002 0.000007 -0.993689 50.943079 -9.624238 24.179903 0.000011 0.000005 -33.266180 15.325268 -14.918962 -12.193899 24.386749 0.000006 0.884250 -18.454756 5.684466 -19.027012 -0.000010 0.000002 -20.056220 -54.821598 1.021595 -24.179913 0.000008 -0.000010 25.286245 -10.645478 -15.705673 
1.867692 2.942760 -6.349301 2.773179 -1.158731 0.264481 14.658601 -0.000011 -0.000003 -4.499823 7.474965 29.253898 -0.000000 -35.094982 0.000001 -0.511854 0.752188 -54.369866 0.000004 -29.899342 -0.000002 -0.867321 0.419460 -1.048811 2.611490 -21.660080 -3.488255 -0.000000 -0.000000 0.000005 -1.591703 -23.267300 17.962542 -0.428811 1.143376 -22.555411 4.659396 -23.267311 16.779673 -0.000000 -0.000000 -0.000002 -14.658600 -0.000003 0.000001 -5.369703 -9.699214 9.010526 -0.000000 -35.094982 0.000000 -1.352662 8.286314 -23.004461 0.000001 -29.899355 0.000001 -4.436306 1.282804 -13.823698 -2.802540 -21.660080 -3.488254 0.000001 0.000001 0.000003 1.591701 -23.267269 17.962532 -0.637791 -0.499656 -5.177394 -4.659399 -23.267290 16.779673 -0.000001 0.000000 0.000004 0.000001 12.042222 0.000001 0.000000 -0.000000 -0.000000 -0.000001 12.939666 -0.000000 0.000000 -0.000000 -0.000000 -0.000001 24.462397 -0.000001 0.000000 -0.000000 -0.000000 -1.098100 27.621796 1.352746 -0.594697 -0.492703 0.543329 0.000001 16.472376 4.302965 1.533074 -3.102136 2.016627 2.175941 17.434280 4.302955 -0.000002 -0.000000 -0.000000 4.890905 16.115791 4.302948 0.000000 -0.000000 0.000002 -2.175928 17.434250 4.302980 0.000002 0.000000 0.000001 -4.890893 16.116249 4.302964 -0.000003 -0.000000 0.000005 12.193897 24.386738 0.000029 -7.173743 18.292696 6.220794 19.027008 -0.000003 0.000027 5.882902 53.859050 -5.413915 24.179914 -0.000013 0.000036 -31.569182 14.788480 -13.435724 -12.193892 24.386742 0.000010 1.857346 -17.937998 5.635746 -19.026985 -0.000007 0.000006 -18.653592 -55.132355 -3.666935 -24.179903 0.000000 -0.000006 34.845084 -6.788983 -17.657636 
2.963477 2.079769 -11.327367 2.598661 0.007656 0.254272 14.658600 0.000002 -0.000003 -3.784435 6.847736 31.343052 0.000001 -35.094982 0.000007 -1.448823 3.106255 -45.164223 -0.000002 -29.899357 0.000003 -0.406147 0.137534 -3.567604 2.611495 -21.660080 -3.488244 0.000000 -0.000001 -0.000006 -1.591702 -23.267303 17.962540 3.372545 3.931107 -5.571652 4.659399 -23.267294 16.779678 -0.000000 -0.000000 -0.000002 -14.658599 0.000007 -0.000002 -4.334855 -10.619542 3.463943 -0.000001 -35.094994 -0.000001 -1.759178 9.424976 -21.019724 -0.000002 -29.899353 -0.000004 -4.772462 1.458314 -15.502513 -2.802541 -21.660088 -3.488248 -0.000000 -0.000000 0.000000 1.591699 -23.267277 17.962538 -0.740386 -0.529105 -5.313243 -4.659400 -23.267303 16.779673 -0.000000 -0.000000 -0.000001 -0.000000 12.042215 0.000000 0.000000 0.000000 -0.000000 0.000000 12.939673 0.000002 0.000000 -0.000000 -0.000001 -0.000001 24.462362 -0.000001 0.000000 -0.000000 0.000000 -1.098100 27.621758 1.352732 0.306227 -0.949309 0.592881 -0.000003 16.472311 4.302957 0.872750 -2.833034 1.924575 2.175949 17.434250 4.302931 0.000002 -0.000000 -0.000003 4.890890 16.115746 4.302956 0.000001 -0.000001 -0.000002 -2.175945 17.434235 4.302945 -0.000002 0.000001 -0.000002 -4.890903 16.116226 4.302938 0.000002 0.000002 -0.000004 12.193911 24.386740 -0.000008 -6.608885 18.272709 6.217413 19.027000 -0.000008 0.000001 14.233812 54.285985 1.431357 24.179899 0.000017 0.000031 -32.271520 15.384376 -13.450123 -12.193907 24.386744 -0.000017 2.636451 -16.931443 5.530029 -19.026991 -0.000001 0.000010 -10.665192 -54.959455 -10.453558 -24.179895 -0.000008 -0.000010 39.306970 -4.823318 -18.533006 
4.161801 1.662401 -16.390482 2.376901 0.829073 0.148903 14.658601 -0.000017 -0.000005 -3.055592 6.229199 33.044664 0.000004 -35.094997 0.000006 -1.442638 4.626423 -35.211107 -0.000002 -29.899363 0.000005 0.852455 -0.067720 -4.367572 2.611494 -21.660095 -3.488243 -0.000001 -0.000003 0.000002 -1.591702 -23.267300 17.962545 1.146641 1.839987 -4.984957 4.659400 -23.267303 16.779682 -0.000001 0.000002 -0.000001 -14.658597 -0.000015 0.000002 -2.646485 -11.572442 -2.272304 -0.000002 -35.094986 -0.000000 -2.494822 10.819688 -19.255186 0.000002 -29.899370 0.000000 -5.123377 1.623801 -17.469768 -2.802542 -21.660078 -3.488242 -0.000003 -0.000000 0.000001 1.591701 -23.267260 17.962547 -0.924011 -0.624031 -5.937747 -4.659399 -23.267294 16.779678 -0.000002 -0.000001 -0.000006 0.000000 12.042191 -0.000005 0.000000 0.000000 -0.000000 0.000000 12.939673 -0.000003 0.000000 0.000000 -0.000000 0.000000 24.462381 -0.000001 0.000000 0.000000 -0.000000 -1.098099 27.621788 1.352742 0.918688 -1.263282 1.530185 0.000000 16.472361 4.302963 0.415053 -2.583659 1.381541 2.175934 17.434258 4.302949 0.000000 -0.000001 -0.000001 4.890903 16.115761 4.302933 0.000000 0.000002 0.000003 -2.175927 17.434242 4.302962 0.000002 0.000001 -0.000001 -4.890906 16.116234 4.302958 0.000000 -0.000000 -0.000001 12.193901 24.386742 -0.000004 -5.841533 17.685192 6.136726 19.027012 -0.000007 -0.000015 20.895447 55.167055 7.280437 24.179903 0.000015 0.000006 -31.156820 16.419811 -13.449840 -12.193892 24.386738 -0.000008 3.383742 -16.097900 5.458380 -19.027002 -0.000014 0.000001 -1.547355 -53.783194 -17.083454 -24.179911 0.000000 0.000015 41.326483 -3.761818 -17.859526 
